<svg xmlns="http://www.w3.org/2000/svg" viewBox="0 0 1200 320" width="1200" height="320">
  <defs>
    <linearGradient id="bg" x1="0%" y1="0%" x2="100%" y2="100%">
      <stop offset="0%" style="stop-color:#1a1a2e;stop-opacity:1" />
      <stop offset="100%" style="stop-color:#16213e;stop-opacity:1" />
    </linearGradient>
    <linearGradient id="accent" x1="0%" y1="0%" x2="100%" y2="0%">
      <stop offset="0%" style="stop-color:#9b59b6;stop-opacity:1" />
      <stop offset="100%" style="stop-color:#3498db;stop-opacity:1" />
    </linearGradient>
    <radialGradient id="glow" cx="50%" cy="50%" r="50%">
      <stop offset="0%" style="stop-color:#3498db;stop-opacity:0.18" />
      <stop offset="100%" style="stop-color:#3498db;stop-opacity:0" />
    </radialGradient>
  </defs>
  <rect width="1200" height="320" fill="url(#bg)"/>
  <circle cx="950" cy="160" r="150" fill="url(#glow)"/>
  <g transform="translate(320,160)" opacity="0.06" fill="none" stroke="url(#accent)"><rect x="-14" y="-52" width="110" height="84" rx="6"/><rect x="60" y="-76" width="24" height="24" rx="4"/></g>
  <g transform="translate(950,160)">
    <rect x="-18" y="-62" width="136" height="104" rx="8" fill="none" stroke="url(#accent)" stroke-width="4"/>
    <line x1="-18" y1="-44" x2="118" y2="-44" stroke="url(#accent)" stroke-width="5"/>
    <rect x="80" y="-92" width="30" height="30" rx="5" fill="none" stroke="url(#accent)" stroke-width="4"/>
    <line x1="95" y1="-62" x2="95" y2="-44" stroke="url(#accent)" stroke-width="5"/>
    <circle cx="22" cy="-16" r="7" fill="url(#accent)"/>
    <path d="M-48,-8 l64,0 l0,34 l26,0" fill="none" stroke="url(#accent)" stroke-width="2.5" opacity="0.7" stroke-linecap="round"/>
    <path d="M-58,-44 l-18,0 M-58,-16 l-18,0" stroke="url(#accent)" stroke-width="2.5" opacity="0.5" stroke-linecap="round"/></g>
  <text x="840" y="148" text-anchor="end" font-family="'Source Sans Pro', sans-serif" font-size="42" font-weight="900" fill="white" letter-spacing="-1">CNC Builds</text>
  <text x="840" y="188" text-anchor="end" font-family="'Source Sans Pro', sans-serif" font-size="15" fill="rgba(255,255,255,0.6)" letter-spacing="2.5">LINKS FOR BUILDING A CNC MACHINE</text>
</svg>
